# xmcd CD database file
#
# Track frame offsets:
#	150
#	31433
#	63325
#	96447
#	127011
#	156059
#	185659
#	210305
#	235804
#	265514
#
# Disc length: 3892 seconds
#
# Revision: 0
# Processed by: cddbd v1.5.2PL0 Copyright (c) Steve Scherf et al.
# Submitted via: CDex 1.81
#
DISCID=850f320a
DTITLE=Various Artist - Twelve Inch Eighties - When The Going Gets Tough [CD3)
DYEAR=2017
DGENRE=80's
TTITLE0=Haysi Fantayzee - John Wayne Is Big Leggy (Groovy Long Version)
TTITLE1=Altered Images - Happy Birthday (Dance Mix)
TTITLE2=Thompson Twins - You Take Me Up (Machines Take Over Me) (12" Version)
TTITLE3=Tight Fit - Fantasy Island (Almighty Mix)
TTITLE4=Bucks Fizz - When We Were Young (12" Club Mix)
TTITLE5=Cock Robin - The Promise You Made (Extended Version)
TTITLE6=Modern Talking - Brother Louie (Special Long Version)
TTITLE7=Spagna - Call Me (Viva Mix)
TTITLE8=Big Fun - Handful Of Promises (12" Version)
TTITLE9=Samantha Fox - I Only Wanna Be With You (Extended Version)
EXTD=YEAR: 2017
EXTT0=
EXTT1=
EXTT2=
EXTT3=
EXTT4=
EXTT5=
EXTT6=
EXTT7=
EXTT8=
EXTT9=
PLAYORDER=
